<?xml version="1.0" encoding="UTF-8" ?>
<!DOCTYPE svg PUBLIC "-//W3C//DTD SVG 1.1//EN" "http://www.w3.org/Graphics/SVG/1.1/DTD/svg11.dtd">
<svg width="1024pt" height="1024pt" viewBox="0 0 1024 1024" version="1.1" xmlns="http://www.w3.org/2000/svg">
<g id="#fcfcfcff">
</g>
<g id="#0c98f1ff">
<path fill="#0c98f1" opacity="1.00" d=" M 703.95 174.80 C 717.47 169.20 732.50 167.58 746.93 169.76 C 764.93 172.49 779.37 187.59 783.76 204.89 C 786.20 214.73 786.40 224.94 785.92 235.02 C 784.23 251.49 779.46 267.48 778.07 283.99 C 776.91 297.29 775.82 310.62 775.97 323.99 C 775.73 339.05 777.74 354.01 779.00 368.99 C 780.44 386.31 780.65 403.73 779.90 421.10 C 779.00 430.35 776.78 439.40 774.41 448.37 C 771.81 458.46 768.77 468.53 763.81 477.74 C 751.28 502.06 730.42 521.22 707.00 534.92 C 696.78 540.53 686.21 545.49 675.39 549.82 C 691.74 551.89 708.12 555.02 723.30 561.67 C 749.94 571.87 772.70 592.78 783.73 619.25 C 786.49 625.90 788.96 632.76 789.92 639.93 C 792.90 660.47 793.56 681.61 789.04 701.98 C 785.78 717.77 779.58 732.78 772.07 746.98 C 759.67 770.02 740.12 788.91 717.04 801.13 C 703.63 808.57 688.64 812.57 673.69 815.57 C 663.89 816.68 653.96 817.61 644.11 816.42 C 626.34 815.21 609.22 809.45 593.23 801.85 C 585.79 798.56 577.67 794.61 573.99 786.88 C 571.87 782.95 572.42 776.68 577.24 775.11 C 583.04 773.99 588.45 777.14 593.60 779.36 C 600.96 782.56 608.08 786.30 615.43 789.54 C 634.61 796.82 655.82 798.85 675.94 794.60 C 660.44 769.95 642.24 746.92 621.29 726.66 C 607.27 712.73 591.65 700.34 574.55 690.39 C 556.95 680.16 538.41 671.50 519.12 664.98 C 499.67 658.71 479.86 653.71 460.02 648.86 C 455.21 647.70 450.44 646.34 445.53 645.60 C 459.89 667.93 474.64 690.19 485.71 714.40 C 489.78 723.85 493.00 733.65 496.60 743.29 C 503.26 761.98 505.97 782.30 502.93 801.99 C 502.14 807.04 499.97 812.79 494.73 814.65 C 489.68 816.35 484.61 813.06 481.86 808.99 C 476.11 800.90 473.32 791.23 470.12 781.96 C 465.42 765.52 455.38 751.30 444.81 738.12 C 431.28 721.97 418.25 705.40 405.71 688.47 C 396.12 675.35 387.11 661.39 382.43 645.68 C 379.52 636.52 379.04 626.46 373.80 618.14 C 357.62 614.48 342.24 604.55 334.43 589.59 C 329.23 579.87 326.24 568.16 329.46 557.32 C 332.11 548.92 338.50 542.24 345.99 537.86 C 338.02 519.26 325.34 503.11 311.25 488.76 C 301.86 478.82 290.39 471.12 278.61 464.30 C 272.10 460.71 264.73 457.26 257.09 458.69 C 251.65 459.53 245.77 458.16 241.44 454.70 C 237.80 451.81 236.83 446.29 239.24 442.32 C 241.75 436.80 248.36 434.59 254.05 435.24 C 273.76 437.07 292.10 446.33 307.62 458.25 C 320.34 468.10 331.34 479.97 341.37 492.50 C 350.53 503.96 357.89 516.88 362.61 530.79 C 363.07 528.20 362.59 525.61 362.34 523.04 C 360.51 498.48 357.15 473.95 350.85 450.11 C 346.07 433.09 340.98 415.99 332.78 400.26 C 327.40 389.83 319.95 380.50 311.09 372.83 C 307.50 369.87 303.67 366.95 299.12 365.68 C 295.08 364.42 290.74 365.61 286.71 364.39 C 283.82 363.55 281.01 362.23 278.80 360.18 C 274.33 355.78 273.54 348.12 277.08 342.94 C 279.64 339.05 284.48 336.96 289.06 337.22 C 299.92 338.20 310.15 342.80 319.08 348.89 C 329.13 356.11 337.48 365.53 344.17 375.90 C 355.95 393.82 361.91 414.63 367.83 435.02 C 374.99 461.17 378.58 488.14 380.47 515.14 C 381.25 521.06 380.95 527.04 381.03 533.00 C 387.93 535.77 394.51 540.07 398.57 546.44 C 402.23 552.24 403.08 559.29 403.01 566.01 C 402.84 572.60 403.67 579.16 403.79 585.75 C 406.81 585.69 409.71 586.45 411.98 588.53 C 413.37 554.51 423.88 521.76 434.62 489.72 C 440.37 471.36 448.43 453.84 456.51 436.41 C 464.97 419.77 473.22 402.99 482.92 387.02 C 486.90 380.59 490.04 373.66 494.32 367.40 C 503.25 354.36 512.10 341.27 521.51 328.56 C 531.65 314.50 542.88 301.28 553.79 287.82 C 558.97 281.99 563.74 275.79 569.33 270.34 C 575.97 263.98 582.67 257.67 589.21 251.20 C 596.73 243.62 605.32 237.24 613.45 230.35 C 640.70 207.58 670.97 188.14 703.95 174.80 M 690.27 204.19 C 664.56 217.29 640.80 233.97 619.03 252.87 C 607.23 263.11 595.28 273.21 584.26 284.30 C 566.64 303.78 548.11 322.60 533.27 344.39 C 519.56 363.81 505.73 383.23 494.15 404.02 C 488.23 414.30 483.28 425.08 477.33 435.35 C 466.55 456.91 457.04 479.14 449.02 501.89 C 443.50 517.43 439.60 533.48 435.55 549.45 C 431.10 567.00 428.69 585.25 430.71 603.33 C 437.31 597.70 442.44 590.64 448.73 584.68 C 462.56 570.53 476.70 556.70 490.73 542.75 C 504.48 530.88 517.48 518.18 530.29 505.31 C 542.36 493.33 553.65 480.59 564.51 467.51 C 574.74 454.62 584.50 441.15 591.13 426.01 C 595.05 417.21 598.52 407.80 598.05 398.01 C 598.12 390.39 594.71 382.92 589.25 377.67 C 585.92 374.35 583.20 369.88 583.85 364.99 C 583.83 361.37 587.39 358.38 590.94 358.90 C 596.82 359.32 601.77 363.43 605.12 368.04 C 609.50 374.62 611.76 382.38 613.54 390.02 C 614.92 399.64 614.17 409.55 611.76 418.95 C 607.45 435.06 598.60 449.44 589.12 462.98 C 576.35 480.64 561.72 496.86 546.75 512.66 C 536.18 523.44 525.66 534.28 514.41 544.35 C 498.74 558.70 483.21 573.19 468.03 588.05 C 461.34 594.15 455.46 601.04 449.17 607.54 C 476.79 599.38 504.24 590.51 530.96 579.72 C 545.25 574.18 559.65 568.88 573.71 562.75 C 589.50 555.67 606.23 551.08 622.63 545.64 C 635.04 541.32 647.37 536.75 659.89 532.72 C 669.14 529.37 678.66 526.72 687.60 522.58 C 703.32 515.37 717.33 504.71 729.25 492.25 C 744.31 476.15 754.03 455.51 758.18 433.95 C 759.39 426.95 759.98 419.86 760.61 412.79 C 761.50 401.52 760.21 390.25 759.93 378.98 C 759.30 369.63 758.03 360.33 757.81 350.95 C 756.84 336.70 755.60 322.38 756.78 308.09 C 757.02 297.38 758.14 286.73 758.92 276.05 C 759.38 265.48 762.73 255.35 764.15 244.91 C 765.58 235.67 766.04 226.18 764.31 216.95 C 762.99 210.94 761.47 204.56 757.06 199.99 C 750.74 193.13 740.88 191.37 731.99 190.99 C 716.95 190.44 703.33 197.67 690.27 204.19 M 579.89 581.80 C 565.95 586.13 552.39 591.55 538.74 596.69 C 517.78 604.42 496.53 611.41 474.93 617.16 C 465.96 619.62 456.61 621.01 448.21 625.22 C 465.31 631.88 483.24 635.92 500.90 640.76 C 538.88 651.04 576.35 665.96 607.57 690.38 C 622.46 701.27 635.56 714.36 648.27 727.68 C 665.59 746.61 680.62 767.51 694.69 788.93 C 720.28 779.45 742.66 760.94 755.90 736.97 C 771.46 708.02 776.89 673.41 769.65 641.25 C 766.01 624.48 757.25 608.94 745.09 596.88 C 733.23 585.72 717.26 580.79 702.12 575.89 C 684.76 569.96 666.17 569.68 648.04 570.10 C 625.03 571.61 601.70 573.86 579.89 581.80 Z" />
</g>
</svg>
