<?xml version="1.0" encoding="UTF-8" ?>
<!DOCTYPE svg PUBLIC "-//W3C//DTD SVG 1.1//EN" "http://www.w3.org/Graphics/SVG/1.1/DTD/svg11.dtd">
<svg width="1024pt" height="1024pt" viewBox="0 0 1024 1024" version="1.1" xmlns="http://www.w3.org/2000/svg">
<g id="#fafafaff">
</g>
<g id="#0d2331ff">
<path fill="#0d2331" opacity="1.00" d=" M 622.92 163.08 C 626.64 161.60 630.74 161.64 634.47 160.20 C 634.48 160.50 634.50 161.09 634.51 161.38 C 636.23 161.46 637.90 161.87 639.49 162.54 L 639.53 163.28 C 646.87 164.03 652.84 169.63 655.97 176.09 C 656.25 177.09 656.56 178.09 656.88 179.09 C 657.34 180.37 657.60 181.72 657.87 183.06 C 659.79 191.35 657.82 199.80 657.28 208.12 C 655.71 218.37 655.40 228.72 654.83 239.06 C 655.57 248.39 655.38 257.77 655.79 267.13 C 657.06 277.00 656.56 287.04 656.71 296.98 C 656.54 300.94 656.96 305.00 655.83 308.85 C 655.59 312.97 655.00 317.05 653.96 321.05 C 653.62 322.34 653.29 323.64 652.91 324.93 C 652.16 327.97 651.21 330.97 649.87 333.82 C 645.24 344.19 637.12 352.97 626.81 357.85 C 624.90 359.03 622.90 360.05 620.81 360.87 C 616.23 362.90 611.66 364.98 607.51 367.82 C 607.49 368.48 607.44 369.81 607.41 370.48 C 611.09 370.34 614.64 371.50 617.90 373.11 C 622.23 374.76 626.65 376.19 630.88 378.09 C 645.24 384.40 656.50 396.71 663.38 410.65 C 664.50 412.67 665.50 414.79 665.88 417.10 C 667.68 421.18 667.39 425.68 667.84 430.01 C 669.08 434.88 668.50 439.99 668.71 444.96 C 669.00 450.36 667.94 455.68 666.95 460.95 C 666.61 462.26 666.30 463.58 665.95 464.89 C 665.39 466.92 664.75 468.93 663.86 470.84 C 660.87 479.09 655.86 486.48 649.68 492.68 C 641.57 501.96 631.51 509.63 619.87 513.87 C 618.87 514.20 617.87 514.53 616.89 514.87 C 608.23 518.49 598.76 517.72 589.61 517.57 C 588.38 517.55 587.21 517.30 586.09 516.84 C 582.67 516.60 579.35 515.77 576.06 514.89 C 575.04 514.58 574.03 514.27 573.03 513.97 C 572.03 513.61 571.05 513.23 570.09 512.84 C 567.98 511.89 565.89 510.87 563.64 510.33 L 563.46 509.40 C 563.02 509.47 562.13 509.63 561.68 509.71 L 561.46 508.40 C 560.98 508.49 560.04 508.68 559.57 508.77 L 559.54 507.34 C 559.05 507.44 558.09 507.64 557.60 507.74 L 557.49 506.47 C 557.01 506.50 556.05 506.56 555.57 506.59 L 555.52 505.62 C 553.53 505.09 551.75 504.05 550.22 502.70 C 549.29 502.23 548.36 501.78 547.43 501.34 L 547.55 500.65 C 544.06 499.53 541.30 496.96 538.42 494.82 C 536.76 493.64 535.16 492.40 533.53 491.21 L 533.52 490.71 C 529.35 488.34 526.51 484.23 522.77 481.27 C 518.63 477.76 514.65 473.99 511.37 469.65 C 508.78 466.49 505.32 464.09 503.22 460.54 L 502.77 460.47 C 500.64 457.16 497.11 455.03 495.24 451.54 L 494.76 451.46 C 491.29 447.25 487.37 443.30 483.18 439.78 C 481.50 438.46 479.90 437.05 478.19 435.79 C 478.37 437.68 479.07 439.44 480.31 440.90 C 482.43 443.67 483.36 447.08 484.81 450.20 C 486.29 453.11 487.60 456.10 488.91 459.09 C 489.13 459.60 489.59 460.64 489.82 461.15 C 490.99 463.52 492.18 465.92 492.73 468.53 L 493.74 468.66 C 493.69 469.02 493.58 469.73 493.52 470.09 C 494.73 471.54 495.29 473.36 495.82 475.15 C 496.07 475.65 496.57 476.65 496.82 477.15 C 497.72 478.83 498.51 480.60 498.62 482.55 L 499.46 482.54 C 499.82 485.68 502.02 488.13 502.79 491.15 C 504.05 493.69 504.91 496.41 505.79 499.11 C 506.24 500.07 506.59 501.07 506.85 502.12 C 508.91 507.93 509.81 514.78 507.45 520.60 C 505.66 524.85 500.65 524.88 496.76 524.60 C 495.65 523.17 494.62 521.65 494.17 519.88 C 492.87 515.87 491.43 511.76 491.40 507.52 L 490.64 507.40 C 490.69 504.33 489.07 501.49 489.49 498.40 L 488.59 498.58 C 488.57 495.79 487.67 493.15 487.33 490.41 L 486.60 490.45 C 486.48 488.21 484.94 486.48 484.35 484.40 L 483.67 484.53 C 482.39 481.15 478.76 479.89 476.15 477.79 C 475.66 477.52 474.68 477.00 474.20 476.74 C 472.04 475.66 470.04 474.31 468.15 472.83 C 464.52 469.76 460.84 466.47 458.22 462.48 L 457.68 462.54 C 456.82 461.20 455.98 459.87 455.27 458.46 L 454.62 458.58 C 454.21 457.63 453.79 456.68 453.36 455.75 C 452.25 454.74 451.60 453.37 450.71 452.20 C 447.65 447.27 443.41 442.87 441.40 437.43 L 440.34 437.47 C 440.41 436.97 440.56 435.98 440.64 435.49 L 439.40 435.45 C 439.45 434.69 439.53 433.18 439.57 432.42 L 438.22 432.47 C 438.31 432.08 438.49 431.29 438.58 430.90 C 437.55 430.04 437.18 428.89 437.45 427.44 L 436.45 427.52 C 436.46 426.17 436.49 424.82 436.52 423.47 L 435.50 423.52 C 435.51 419.88 435.41 416.24 435.55 412.60 C 434.18 412.65 433.42 411.99 433.27 410.64 C 431.01 410.59 428.84 409.89 427.06 408.50 C 426.69 408.54 425.95 408.63 425.58 408.67 L 425.51 407.36 C 425.02 407.45 424.06 407.63 423.57 407.72 L 423.57 406.59 C 422.47 406.27 421.42 405.86 420.42 405.34 L 420.51 404.74 C 418.61 403.92 417.28 402.26 415.48 401.30 L 415.57 400.76 C 413.75 400.22 412.81 398.53 411.60 397.25 C 411.11 396.33 410.67 395.39 410.31 394.43 L 409.28 394.47 C 409.38 393.97 409.58 392.95 409.68 392.45 L 408.24 392.55 C 408.35 392.04 408.58 391.01 408.69 390.50 L 407.40 390.54 C 407.44 389.78 407.52 388.27 407.56 387.51 L 406.50 387.56 C 406.46 383.57 405.92 379.51 406.72 375.57 C 408.22 372.07 410.03 368.34 413.27 366.15 L 413.65 364.79 C 411.25 363.28 411.19 360.22 410.25 357.83 C 408.25 353.77 406.19 349.69 404.37 345.54 L 403.42 345.36 C 403.46 344.90 403.53 343.96 403.57 343.50 L 402.62 343.53 C 402.20 342.60 401.78 341.67 401.36 340.75 C 397.23 335.22 392.61 330.02 387.19 325.70 C 385.81 324.85 384.56 323.81 383.36 322.73 C 381.52 321.55 379.67 320.38 377.78 319.28 C 376.91 318.72 376.06 318.14 375.22 317.57 C 369.11 314.71 362.20 313.59 355.59 315.19 C 354.62 314.85 353.65 314.51 352.69 314.18 C 351.95 311.51 352.07 308.14 355.15 307.09 C 358.71 304.98 362.97 305.32 366.94 305.28 C 371.05 305.11 374.88 306.84 378.46 308.64 C 393.49 317.04 405.56 330.13 413.83 345.14 C 416.48 350.08 419.80 354.90 420.56 360.59 L 422.69 360.49 L 422.41 359.36 C 424.17 359.51 425.95 359.62 427.72 359.74 L 427.22 358.25 L 428.61 358.70 C 428.42 355.10 428.51 351.50 428.35 347.91 C 427.48 345.67 427.49 343.25 427.26 340.90 C 426.18 338.58 426.35 336.01 426.47 333.54 L 425.53 333.45 C 425.47 331.44 425.42 329.43 425.47 327.43 L 424.45 327.59 C 424.43 326.34 424.40 325.10 424.35 323.85 C 423.52 322.52 423.39 320.95 423.39 319.43 L 422.62 319.58 C 422.67 316.00 420.19 313.01 420.35 309.42 L 419.54 309.42 C 419.21 307.76 418.74 306.12 418.38 304.47 L 417.67 304.50 C 417.22 302.64 416.91 300.67 415.64 299.17 C 415.15 297.97 414.66 296.78 414.35 295.53 L 413.44 295.36 C 413.45 294.98 413.48 294.23 413.49 293.85 C 413.20 293.28 412.61 292.14 412.31 291.57 L 411.64 291.52 C 411.22 290.59 410.79 289.67 410.35 288.75 C 407.95 285.70 406.20 282.20 403.72 279.20 C 401.01 275.89 398.16 272.50 394.46 270.28 L 394.54 269.48 C 391.42 269.09 387.89 270.18 385.07 268.62 C 384.70 268.62 383.94 268.63 383.56 268.64 L 383.51 267.78 C 383.13 267.56 382.37 267.11 381.99 266.89 C 380.86 264.29 381.16 261.26 381.66 258.55 C 383.91 254.17 389.90 254.68 393.77 256.32 C 406.49 263.71 415.53 276.12 421.86 289.15 C 423.05 291.39 424.05 293.73 424.88 296.14 C 426.85 301.00 428.49 306.00 429.93 311.05 C 434.14 324.67 436.15 338.82 437.59 352.97 C 437.82 355.50 437.17 357.98 436.29 360.34 C 439.82 360.24 443.10 362.10 445.83 364.17 C 451.56 369.02 452.40 377.00 452.85 384.01 C 454.13 388.80 452.80 393.90 454.64 398.63 L 455.53 398.18 C 455.99 399.20 456.91 401.25 457.37 402.28 C 458.00 394.58 456.52 386.63 458.35 379.09 C 458.52 372.51 460.25 366.08 460.52 359.52 L 461.37 359.54 C 461.54 356.36 461.97 353.04 463.22 350.10 C 463.44 348.74 463.64 347.37 464.16 346.09 C 464.66 343.67 465.17 341.23 466.14 338.95 C 466.74 336.09 468.06 333.43 468.59 330.56 L 469.35 330.52 C 469.70 327.56 470.98 324.81 472.22 322.14 C 473.54 319.11 474.39 315.70 476.54 313.14 C 476.49 312.77 476.40 312.03 476.36 311.66 L 477.62 311.48 C 477.53 311.03 477.36 310.13 477.27 309.68 L 478.29 309.52 C 478.52 308.93 478.97 307.75 479.20 307.15 C 479.46 306.65 479.99 305.64 480.25 305.14 C 481.06 303.58 481.88 302.03 482.63 300.44 C 483.14 299.67 483.66 298.90 484.19 298.13 C 484.46 297.63 484.99 296.63 485.25 296.13 C 486.49 293.77 487.63 291.33 489.25 289.20 C 491.93 284.02 495.06 279.09 498.16 274.16 C 498.77 273.12 499.47 272.14 500.21 271.19 C 501.93 268.02 504.08 265.11 506.24 262.22 C 506.88 261.24 507.54 260.27 508.21 259.30 C 512.41 253.74 516.58 248.16 520.75 242.59 L 521.20 242.43 C 523.25 239.15 525.88 236.28 528.24 233.22 C 529.55 231.17 531.46 229.59 532.77 227.54 L 533.22 227.48 C 533.85 226.39 534.55 225.33 535.47 224.45 C 542.75 217.07 549.83 209.45 557.70 202.69 C 559.93 200.94 561.82 198.79 564.21 197.25 C 565.83 195.74 567.48 194.23 569.49 193.26 L 569.52 192.78 C 572.44 190.61 575.27 188.34 578.21 186.21 C 579.21 185.53 580.23 184.86 581.27 184.22 C 583.13 182.74 585.05 181.31 587.20 180.25 C 590.39 178.05 593.86 176.27 597.15 174.22 C 597.65 173.96 598.65 173.43 599.15 173.17 C 601.13 172.02 603.14 170.65 605.46 170.34 L 605.65 169.63 C 611.48 167.65 617.10 165.10 622.92 163.08 M 610.76 179.72 C 591.24 189.64 572.43 201.41 556.55 216.61 C 544.62 228.08 534.30 241.07 523.92 253.92 C 511.20 270.76 500.29 288.95 490.86 307.82 C 488.51 312.82 486.13 317.81 483.87 322.86 C 483.35 324.58 482.65 326.23 481.86 327.85 C 481.28 329.58 480.65 331.31 479.92 332.98 C 478.87 335.94 477.86 338.91 476.87 341.89 C 476.54 342.90 476.20 343.90 475.85 344.90 C 474.90 348.58 474.10 352.30 472.89 355.90 C 472.19 359.25 471.64 362.65 470.83 365.98 C 470.63 367.99 470.48 370.01 469.84 371.94 C 469.00 377.93 468.76 384.00 467.85 389.98 C 467.72 392.53 467.65 395.08 467.48 397.63 C 468.20 397.60 469.63 397.55 470.35 397.52 C 470.24 394.54 473.09 392.88 475.06 391.16 C 478.81 388.60 481.54 384.88 485.20 382.20 C 488.93 379.26 491.96 375.55 495.75 372.67 C 497.66 371.25 499.32 369.53 501.32 368.23 C 502.57 367.18 503.84 366.15 505.20 365.25 C 506.84 363.85 508.42 362.35 510.30 361.26 C 512.33 359.62 514.09 357.62 516.37 356.29 C 518.31 354.60 520.09 352.73 522.19 351.24 C 522.46 351.01 523.01 350.53 523.28 350.29 C 523.52 350.03 524.00 349.49 524.25 349.22 C 524.58 348.99 525.24 348.53 525.57 348.30 L 525.49 347.50 L 526.23 347.52 C 526.54 347.18 527.15 346.52 527.45 346.19 L 527.42 345.42 L 528.19 345.41 C 534.27 338.12 541.79 332.07 547.28 324.24 C 548.98 321.51 550.67 318.77 552.44 316.09 C 552.42 315.70 552.36 314.92 552.33 314.53 L 553.35 314.51 C 554.06 310.99 555.37 307.62 556.32 304.16 C 556.56 300.40 556.52 296.63 556.32 292.87 C 555.10 290.95 555.39 288.62 555.43 286.47 L 554.49 286.53 C 554.46 282.54 554.39 278.55 554.50 274.56 L 555.37 274.52 C 555.33 273.00 555.57 271.50 556.07 270.07 C 559.31 261.55 567.28 256.58 574.14 251.23 C 580.87 246.14 587.80 241.26 595.20 237.18 C 603.59 232.34 612.34 228.10 621.17 224.12 C 622.48 223.43 623.81 222.80 625.17 222.21 C 629.22 220.24 633.33 218.38 637.31 216.25 C 640.41 214.04 643.64 211.98 646.43 209.36 C 647.27 207.11 648.37 204.92 648.63 202.51 L 649.49 202.56 C 649.51 200.40 648.97 198.01 650.30 196.10 C 650.36 194.26 650.39 192.41 650.43 190.57 L 649.53 190.40 C 649.51 188.73 649.48 187.07 649.52 185.41 L 648.43 185.57 C 648.44 184.92 648.44 183.63 648.44 182.99 C 646.39 181.46 644.39 179.80 643.09 177.56 C 642.44 177.57 641.15 177.59 640.50 177.60 L 640.55 176.62 C 638.32 176.29 636.15 175.65 634.14 174.65 C 626.03 173.75 617.83 175.72 610.76 179.72 M 637.85 223.83 C 628.45 227.74 619.63 232.84 610.51 237.30 C 600.63 242.65 590.68 247.96 581.48 254.43 C 575.19 259.42 567.84 264.09 564.81 271.91 C 562.67 276.85 565.52 282.00 565.40 287.07 C 565.44 292.69 565.90 298.39 564.92 303.95 C 564.58 307.01 563.97 310.03 562.93 312.93 C 559.47 323.88 552.39 333.26 544.58 341.51 C 535.61 350.96 525.11 358.74 515.75 367.77 C 506.73 376.80 496.51 384.47 486.92 392.86 C 485.57 394.17 484.17 395.44 482.83 396.76 C 482.22 397.54 481.52 398.22 480.73 398.82 C 480.60 399.51 480.33 400.91 480.20 401.60 C 481.18 401.51 483.13 401.32 484.11 401.23 C 485.03 400.70 486.00 400.30 487.03 400.04 C 488.06 399.73 489.09 399.44 490.13 399.16 C 493.15 398.21 496.12 397.05 499.18 396.18 C 501.38 394.90 503.88 394.28 506.16 393.16 C 510.05 391.23 514.16 389.77 518.18 388.17 C 522.42 386.35 526.75 384.69 531.12 383.23 C 532.07 382.74 533.07 382.38 534.12 382.16 C 536.66 380.84 539.43 380.06 542.14 379.16 C 543.06 378.69 544.02 378.35 545.04 378.11 C 546.15 377.68 547.31 377.40 548.52 377.28 L 548.51 376.52 C 549.16 376.47 550.47 376.37 551.13 376.33 C 551.94 375.55 552.94 375.17 554.12 375.18 C 555.97 374.08 558.05 373.57 560.14 373.18 C 561.10 372.76 562.08 372.41 563.09 372.13 C 565.38 371.31 567.70 370.55 570.10 370.12 C 572.37 369.23 574.75 368.65 577.14 368.17 C 579.32 367.22 581.66 366.72 583.94 366.05 C 584.97 365.68 586.01 365.35 587.07 365.06 C 588.07 364.73 589.06 364.40 590.06 364.05 C 591.15 363.56 592.30 363.32 593.52 363.34 L 593.58 362.62 C 595.14 362.24 596.67 361.76 598.19 361.23 C 601.38 359.61 604.83 358.56 608.14 357.21 C 609.77 356.43 611.43 355.70 613.18 355.18 C 615.88 353.91 618.55 352.56 621.22 351.20 C 622.19 350.51 623.18 349.83 624.20 349.20 C 629.43 345.85 633.90 341.48 637.22 336.21 C 637.49 335.70 638.01 334.68 638.28 334.17 C 639.20 332.35 640.21 330.56 640.71 328.56 L 641.37 328.49 C 641.25 327.24 641.55 326.13 642.27 325.17 C 642.55 324.14 642.83 323.11 643.12 322.08 C 643.43 321.03 643.78 320.00 644.19 318.99 C 644.54 317.36 644.10 315.38 645.39 314.10 C 645.39 312.08 645.47 310.02 646.27 308.14 C 646.72 300.03 646.42 291.91 646.26 283.80 C 644.82 279.35 645.96 274.55 644.65 270.04 C 644.01 255.49 644.60 240.91 644.35 226.35 L 645.45 226.70 L 645.44 224.21 L 643.86 224.69 C 644.12 224.11 644.63 222.97 644.88 222.40 C 643.88 222.46 641.89 222.57 640.89 222.63 C 639.88 223.05 638.86 223.46 637.85 223.83 M 563.92 382.86 C 556.52 385.10 549.32 388.00 541.82 389.87 C 538.26 391.44 534.54 392.63 530.85 393.85 C 528.14 394.99 525.42 396.20 522.52 396.74 L 522.35 397.34 C 520.83 397.77 519.33 398.26 517.85 398.77 C 514.55 400.23 511.21 401.60 507.82 402.81 C 504.62 404.42 501.31 405.81 497.87 406.80 C 496.91 407.20 495.96 407.60 495.01 408.00 C 493.99 408.29 492.98 408.59 491.98 408.90 C 488.55 410.19 485.11 411.92 481.33 411.58 L 481.39 413.48 L 482.61 413.60 L 482.47 414.39 C 486.07 414.28 489.53 415.39 493.03 416.06 C 496.66 416.63 500.28 417.33 503.87 418.12 C 505.55 418.33 507.26 418.58 508.88 419.16 C 510.91 419.30 512.97 419.46 514.91 420.16 C 519.90 420.87 525.04 421.03 529.89 422.27 C 539.50 422.49 549.13 422.60 558.73 422.21 C 564.14 421.26 569.64 421.53 575.10 421.21 C 578.12 420.02 581.42 420.62 584.56 420.07 C 587.70 419.45 590.92 419.43 594.11 419.23 C 598.65 418.14 603.38 418.58 608.02 418.43 C 611.65 418.65 615.42 418.03 618.94 419.21 C 625.32 419.17 631.66 420.08 637.94 421.10 C 640.98 421.48 644.07 421.87 646.91 423.13 C 650.44 423.52 653.42 425.54 656.66 426.80 C 656.60 425.00 656.54 423.20 656.48 421.41 L 655.55 421.53 C 655.40 419.42 654.83 417.40 654.34 415.36 L 653.18 415.47 C 653.29 415.10 653.51 414.36 653.62 413.99 C 652.66 413.21 652.20 412.18 652.26 410.89 C 652.01 410.31 651.51 409.16 651.27 408.59 L 650.26 408.60 L 650.64 407.39 L 649.26 407.47 C 649.36 406.97 649.57 405.99 649.68 405.49 L 648.72 405.45 C 647.70 403.42 646.03 401.85 644.46 400.27 L 644.55 399.47 L 643.46 399.52 L 643.56 398.71 C 643.25 398.39 642.63 397.76 642.31 397.44 L 641.84 397.44 C 641.07 396.41 640.18 395.49 639.24 394.65 C 635.36 391.79 631.45 388.99 627.21 386.69 C 625.78 386.21 624.40 385.62 623.22 384.70 C 621.73 384.36 620.31 383.84 618.92 383.29 C 617.61 382.78 616.21 382.51 615.09 381.66 C 614.22 381.62 612.49 381.55 611.62 381.51 L 611.59 380.57 C 609.39 380.65 607.14 380.71 605.11 379.77 C 599.70 379.57 594.41 378.14 588.96 378.53 C 580.37 378.07 572.12 380.74 563.92 382.86 M 479.93 424.19 C 480.73 426.56 483.17 427.53 484.92 429.06 C 489.98 433.33 494.41 438.26 499.38 442.64 C 506.44 450.85 514.42 458.22 522.10 465.86 C 534.30 477.75 546.90 489.52 561.72 498.10 C 567.24 500.94 573.15 502.84 578.89 505.14 C 581.55 505.79 584.25 506.35 586.87 507.20 C 589.24 507.41 591.68 507.40 593.93 508.32 C 598.32 508.08 602.67 507.34 607.09 507.24 C 608.04 506.79 609.03 506.42 610.05 506.11 C 611.10 505.76 612.15 505.42 613.21 505.07 C 614.29 504.77 615.38 504.50 616.49 504.26 L 616.69 503.27 C 617.18 503.37 618.15 503.55 618.64 503.65 L 618.52 501.90 C 618.97 502.16 619.88 502.67 620.33 502.93 C 620.46 502.21 620.73 500.79 620.86 500.07 L 619.43 500.83 L 619.47 499.82 C 613.35 496.56 608.51 491.15 604.30 485.73 C 602.58 483.77 600.76 481.91 599.23 479.80 C 598.99 479.52 598.51 478.96 598.26 478.68 C 596.70 476.53 594.26 474.99 593.35 472.42 L 592.74 472.57 C 588.98 467.57 584.31 463.19 579.50 459.20 L 579.59 458.66 C 579.25 458.44 578.56 457.98 578.21 457.75 C 576.01 456.31 574.28 454.31 572.21 452.70 C 561.32 444.85 550.23 436.72 537.20 432.83 C 536.08 432.68 535.03 432.34 534.06 431.82 C 531.09 431.14 528.09 430.62 525.07 430.28 C 523.04 429.19 520.66 429.62 518.47 429.55 L 518.55 428.58 C 515.55 428.65 512.56 428.53 509.57 428.44 L 509.48 427.62 C 506.82 427.64 504.16 427.55 501.50 427.49 L 501.52 426.57 C 498.39 426.48 495.01 427.18 492.08 425.73 C 490.24 425.60 488.40 425.54 486.56 425.52 L 486.54 424.59 C 484.33 424.56 482.12 424.36 479.93 424.19 M 577.85 429.72 C 575.55 430.54 573.11 430.60 570.71 430.72 C 567.72 431.63 564.59 431.59 561.51 431.49 L 561.42 433.47 C 566.20 434.80 569.75 438.52 573.67 441.37 C 576.82 443.52 579.05 446.64 581.81 449.20 C 590.83 457.19 598.71 466.32 606.98 475.06 C 613.60 482.53 619.26 491.19 627.93 496.50 C 628.48 496.18 629.58 495.52 630.13 495.20 C 635.10 491.53 639.94 487.60 643.83 482.78 C 645.35 480.61 646.65 478.31 648.27 476.21 C 648.50 475.68 648.97 474.63 649.20 474.11 C 649.47 473.61 650.02 472.62 650.29 472.13 C 650.60 471.62 651.22 470.60 651.53 470.09 C 651.45 469.71 651.29 468.93 651.21 468.54 L 652.35 468.53 C 652.20 467.17 652.54 466.02 653.37 465.06 C 653.41 464.42 653.50 463.13 653.54 462.49 L 654.35 462.51 C 654.27 461.25 654.58 460.12 655.26 459.11 C 655.48 457.77 655.70 456.43 656.16 455.15 C 656.46 453.79 656.75 452.43 657.30 451.16 C 657.40 447.86 657.95 444.62 658.66 441.41 L 657.18 441.51 C 657.31 441.10 657.57 440.27 657.70 439.86 C 655.30 438.82 653.86 436.48 651.59 435.26 L 651.52 434.38 C 651.01 434.45 650.00 434.59 649.49 434.66 L 649.57 433.60 C 648.11 433.51 646.98 432.40 645.50 432.51 L 645.59 431.60 C 644.27 431.73 643.11 431.44 642.11 430.72 C 639.13 430.01 636.09 429.56 633.14 428.76 C 628.08 428.42 623.00 428.58 617.94 428.29 C 610.85 427.00 603.63 427.99 596.48 427.56 L 596.48 428.48 C 590.21 428.06 584.09 429.65 577.85 429.72 Z" />
</g>
</svg>
